<?xml version="1.0" encoding="UTF-8"?>
<svg id="Layer_2" data-name="Layer 2" xmlns="http://www.w3.org/2000/svg" viewBox="0 0 538.71 434.66">
  <defs>
    <style>
      .cls-1 {
        fill: #2e307f;
      }
    </style>
  </defs>
  <g id="Layer_1-2" data-name="Layer 1">
    <g>
      <path class="cls-1" d="M537.31,269.55c7.42-96.84-12.39-185.56-113.52-220.83-1.32-.46-15.85-4.84-15.31-3.09,8.65,10.31,10.74,24.3,11.71,37.37,16.23,6.77,33.47,14.78,44.45,28.96-46.8,50.11-94.93,98.72-143.11,147.35-38.96,41.72-84.34,82.8-96.06,141.62h-19.43c2.3-60.06,69.82-98.96,40.06-162.24-6.81-14.47-18.89-28.22-30.41-39.15l-20.82,24.87c6.6,8.19,15.54,15.3,20.25,24.81,16.94,34.19-8.15,55.8-22.54,83.54-13.93,26.86-23.3,67.01-21.79,97.33.07,1.5.47,2.98,1.48,4.14l14.36-.58v-.06c.74.07,1.5.09,2.24.06l66.25,1.01c-2.06-32.82,12.33-66.31,33.22-91.01,24.55-29.02,55.65-57.77,82.34-85.33,2.01-2.08,27.37-30.81,28.59-29.17-.31,18.82,6.97,38.83,15.84,55.23,18.62,34.46,52.41,56.32,60.4,97.06,1.26,6.4,1.71,12.97,1.48,19.48-5.28-1.42-10.98,1.2-15.85-2.04-4.62-34.77-25.71-64.93-51.61-87.44-14.94-12.98-16.27-8.34-34.25-9.71-7.78-.59-15.48-3.86-23.32-2.84l-26.28,27.38c19.52,7.68,40.82,8.43,61.61,9.46,32.55,21.19,47.01,59.82,44.72,97.91h50.84c.38.1.77.19,1.18.21.52.02,1.06-.08,1.54-.28,15.63-2.78,24.2-13.47,24.79-29.24,1.06-28.41-10.78-52.84-23.02-77.51,7.92-19.12,15.44-39.8,18.18-60.46,1.34-10.12.49-20.43,2.21-30.51l-1.05-56.78c1.61.21,2.17,3.73,2.56,5.09,3.89,13.26,6.31,28.86,8.53,42.59,3.53,21.78,1.6,43.15,18.03,60.69,2.71-1.17,1.28-14.4,1.55-17.88ZM473.95,258.34c-.86,13.19-5.31,26.51-8.23,39.32-1.68,1.23-10.35-9.62-11.66-11.33-16.82-21.85-26.61-50.36-22.98-78.03.47-3.59,2.61-14.61,4.12-17.35,2.25-4.05,19.35-20.34,24.03-25.08,1.36-1.38,3.1-.59,2.41-3.17l-2.03-1.02c5.25,2.53,13.22-14.74,14.36-4.66.54,4.77.35,12.3.4,17.43.28,26.31,1.28,58.03-.41,83.88Z"/>
      <path class="cls-1" d="M226.48,77.32c-2.06,19.36,1.53,42.13,0,61.86l31.17-30.69c-1.37-30.02,7.3-59.02,38.58-68.77,57.46-17.9,99.21,46.81,59.6,91.29l-62.9,63.95c-1.19.95-1.68.11-2.58-.51-7.49-5.15-14.04-17.46-22-23.01l-.82-3.92,85.25-86.64c3.24-7.07-14.18-24.56-21.98-24.06l-107.22,108.58c-.74,3.89,13.45,19.32,16.69,22.87,16.31,17.88,34.4,34.86,51.63,51.74l5.8-2.02c27.77-36.31,96.01-80.33,104.39-126.16,12.35-67.56-43.94-118.59-110.22-105.1-32.88,6.69-61.81,36.95-65.38,70.6Z"/>
      <path class="cls-1" d="M22.4,207.73l.25-.23c1.56.74,3.28,1.24,4.44,1.46l18.41,4.85c.14-.14.17-.34.14-.56.41.21.85.39,1.33.48,2.85.56,5.71,1.06,8.58,1.56,1.83.67,4.04.88,5.79,1.59l.1-.57c.84.15,1.68.29,2.52.44l-.05.14h.87c.48.07.96.09,1.42,0h14.58c4.16,0,16.52-3.17,20.96-4.6,1.85-.6,14.42-5.93,14.84-6.63,1.36-21.42,2.05-41.84,7.94-62.61,3.02-10.64,7.61-21.42,12.83-31.14,1.53-2.85,6.28-9.14,8.65-13.02,1.07-.61,2.66-4.43,3.65-6.89,4.44-1.52,8.1-8.56,11.37-11.64,12.76-12.04,27.79-21.81,44-28.59,4.05-1.69,10.48-2.18,13.82-4.59,2.92-2.11,12.09-17.84,16.32-22.54,4.63-5.14,9.57-8.54,14.55-12.98.68-.6,1.97.06,1.3-2.33-26.52-.26-52.96,7.14-76.36,19.23-6.53,3.37-30.84,19.06-33.51,24.77-.06.13-.11.27-.17.41-.22.22-.44.44-.65.66-.6.64-2.02,1.81-3.35,3.16l.04-.17c-22.56,21.55-37.58,50.44-45.21,80.55-2.58,10.17-3.4,21.08-5.88,30.93-7.07,28.18-44.63,20.09-50.36-6.97-10.21-48.25,75.4-71.98,51.33-131.08C80.03,13.95,66.18,2.8,48.05.05c-1.89-.26-1.28.47-1.66,1.48-1.27,3.39-1.32,7.74-2.73,11.57-1.75,4.75-5.43,9.95-8.35,14.12,5.11,2.35,9.91,2.22,15,5.42,18.1,11.4,10.77,28.04.28,41.58C22.36,110.66-14.48,132.14,5.88,187.5c2.09,5.68,9.29,20.84,16.52,20.23Z"/>
      <path class="cls-1" d="M203.78,188.93c-3.46-6.27-8.71-11.42-13.68-16.44-2.44-2.46-6.12-9.23-10.61-7.27-2.67,1.17-2.9,3.55-3.01,5.65-.44-.43-1.05-.7-1.64-.56-.92.23-1.35,1.24-1.74,2.1-.54,1.16-1.07,2.34-1.15,3.49-.27.16-.53.32-.75.52-5.59,5.04-11.72,14.88-17.66,20.68-31,30.27-73.45,39.33-115.38,29.71-7.06-1.62-14.27-5.25-20.82-6.8-1.36-.32-1.98.13-1.46,1.46,3.6,9.09,24.59,21.9,34.84,24.81.01.05.03.1.04.15l-.04-.15c.31.09.63.2.92.26,0-.03,0-.06.01-.09.37.31.76.6,1.19.82-.06.09-.11.17-.17.26,22.72,8.44,48.13,10.94,71.81,4.85,19.71-5.07,38.88-18.68,53.47-32.41,4.3-4.05,26.23-26.87,25.84-31.05Z"/>
      <path class="cls-1" d="M387.01,355.94l-29.66,77.7h58.28c.97-28.51-6.72-58.45-28.62-77.7Z"/>
      <path class="cls-1" d="M181.22,98.53c-17.13,2.87-17.64,30.08,1.02,33.24,23.58,4,25.2-31.73,4.86-33.5-1.98-.17-3.92-.07-5.88.26Z"/>
      <path class="cls-1" d="M323.4,373.52c-2.37-10.02-7.66-21.74-13.22-30.22-.41-.63-1.12-2.17-1.9-1.18-1.18.5-14.34,16.75-15.76,19.03-6.98,11.18-1.85,12.2.94,22.4.83,3.06,3.46,12.65,3.38,15.07-.04,1.25-.39,1.59-1.34,2.31h-21.98l-2.04,32.72h30.16l.04-.1c.26.03.52.06.77.06,3.26-.08,6.41-1.14,9.42-2.32.18-.07.37-.15.56-.24,1.09-.33,2.34-.97,3.98-2.07,15.94-10.77,14.6-38.74,7.5-54.01-.15-.48-.32-.96-.48-1.44Z"/>
    </g>
  </g>
</svg>